<svg xmlns="http://www.w3.org/2000/svg" xmlns:xlink="http://www.w3.org/1999/xlink" viewBox="0 0 619.53 671.7"><defs><style>.cls-1{fill:none;}.cls-2{isolation:isolate;}.cls-3{opacity:0.6;}.cls-4{clip-path:url(#clip-path);}.cls-5{mix-blend-mode:overlay;}.cls-6{opacity:0.2;}.cls-7{fill:#231f20;}.cls-8{clip-path:url(#clip-path-2);}.cls-9{fill:url(#linear-gradient);}.cls-10{clip-path:url(#clip-path-3);}.cls-11,.cls-14,.cls-17{fill:#fff;}.cls-12{clip-path:url(#clip-path-4);}.cls-13{font-size:347.09px;}.cls-13,.cls-16{font-family:NovithaScript-Demo, Novitha ScriptDemo;}.cls-14{font-size:80.28px;font-family:MuseoSans-700, Museo Sans;}.cls-15{letter-spacing:0.02em;}.cls-16{font-size:170.74px;fill:#ffbd0b;}.cls-17{font-size:17px;font-family:MuseoSans-100, Museo Sans;letter-spacing:0.02em;}.cls-18{letter-spacing:0.01em;}.cls-19{letter-spacing:0.02em;}.cls-20{letter-spacing:0.02em;}.cls-21{letter-spacing:-0.08em;}.cls-22{letter-spacing:-0.09em;}</style><clipPath id="clip-path"><rect class="cls-1" x="119.14" y="66.74" width="500.21" height="624.96"/></clipPath><clipPath id="clip-path-2"><rect class="cls-1" x="-532.17" y="0.2" width="1152" height="671.5"/></clipPath><linearGradient id="linear-gradient" x1="15.08" y1="-118.73" x2="631.03" y2="760.95" gradientUnits="userSpaceOnUse"><stop offset="0" stop-color="#1d1e1e"/><stop offset="0.36" stop-color="#181919"/><stop offset="0.77" stop-color="#0b0b0b"/><stop offset="1"/></linearGradient><clipPath id="clip-path-3"><rect class="cls-1" x="197.14" y="108.74" width="500.21" height="624.96"/></clipPath><clipPath id="clip-path-4"><polygon class="cls-1" points="15.45 642.98 41.82 220.2 0 0.2 619.53 0 619.53 673.6 15.45 642.98"/></clipPath></defs><title>Banner-asset</title><g class="cls-2"><g id="Layer_1" data-name="Layer 1"><g class="cls-3"><g class="cls-4"><g class="cls-5"><g class="cls-6"><polygon class="cls-7" points="607.49 464.2 595.49 464.2 595.49 452.2 594.49 452.2 594.49 464.2 583.49 464.2 583.49 467.2 594.49 467.2 594.49 478.2 595.49 478.2 595.49 467.2 607.49 467.2 607.49 464.2"/><polygon class="cls-7" points="504.49 464.2 492.49 464.2 492.49 452.2 491.49 452.2 491.49 464.2 480.49 464.2 480.49 467.2 491.49 467.2 491.49 478.2 492.49 478.2 492.49 467.2 504.49 467.2 504.49 464.2"/><polygon class="cls-7" points="401.49 464.2 389.49 464.2 389.49 452.2 386.49 452.2 386.49 464.2 377.49 464.2 377.49 467.2 386.49 467.2 386.49 478.2 389.49 478.2 389.49 467.2 401.49 467.2 401.49 464.2"/><polygon class="cls-7" points="298.49 464.2 285.49 464.2 285.49 452.24 285.49 452.24 285.49 464.2 274.49 464.2 274.49 467.2 285.49 467.2 285.49 477.99 285.49 477.99 285.49 467.2 298.49 467.2 298.49 464.2"/><polygon class="cls-7" points="194.49 464.2 183.49 464.2 183.49 452.2 180.49 452.2 180.49 464.2 171.49 464.2 171.49 467.2 180.49 467.2 180.49 478.2 183.49 478.2 183.49 467.2 194.49 467.2 194.49 464.2"/><polygon class="cls-7" points="92.49 464.2 80.49 464.2 80.49 452.2 77.49 452.2 77.49 464.2 66.49 464.2 66.49 467.2 77.49 467.2 77.49 478.2 80.49 478.2 80.49 467.2 92.49 467.2 92.49 464.2"/></g><g class="cls-6"><polygon class="cls-7" points="542.49 529.2 530.49 529.2 530.49 517.2 529.49 517.2 529.49 529.2 518.49 529.2 518.49 532.2 529.49 532.2 529.49 543.2 530.49 543.2 530.49 532.2 542.49 532.2 542.49 529.2"/><polygon class="cls-7" points="439.49 529.2 427.49 529.2 427.49 517.2 426.49 517.2 426.49 529.2 415.49 529.2 415.49 532.2 426.49 532.2 426.49 543.2 427.49 543.2 427.49 532.2 439.49 532.2 439.49 529.2"/><polygon class="cls-7" points="336.49 529.2 324.49 529.2 324.49 517.2 321.49 517.2 321.49 529.2 312.49 529.2 312.49 532.2 321.49 532.2 321.49 543.2 324.49 543.2 324.49 532.2 336.49 532.2 336.49 529.2"/><polygon class="cls-7" points="233.49 529.2 220.49 529.2 220.49 517.22 220.49 517.22 220.49 529.2 209.49 529.2 209.49 532.2 220.49 532.2 220.49 542.97 220.49 542.97 220.49 532.2 233.49 532.2 233.49 529.2"/><polygon class="cls-7" points="129.49 529.2 118.49 529.2 118.49 517.2 115.49 517.2 115.49 529.2 106.49 529.2 106.49 532.2 115.49 532.2 115.49 543.2 118.49 543.2 118.49 532.2 129.49 532.2 129.49 529.2"/><polygon class="cls-7" points="27.49 529.2 14.49 529.2 14.49 517.2 12.49 517.2 12.49 529.2 1.49 529.2 1.49 532.2 12.49 532.2 12.49 543.2 14.49 543.2 14.49 532.2 27.49 532.2 27.49 529.2"/></g><g class="cls-6"><polygon class="cls-7" points="569.49 605.2 557.49 605.2 557.49 594.2 556.49 594.2 556.49 605.2 545.49 605.2 545.49 608.2 556.49 608.2 556.49 619.2 557.49 619.2 557.49 608.2 569.49 608.2 569.49 605.2"/><polygon class="cls-7" points="466.49 605.2 454.49 605.2 454.49 594.2 451.49 594.2 451.49 605.2 442.49 605.2 442.49 608.2 451.49 608.2 451.49 619.2 454.49 619.2 454.49 608.2 466.49 608.2 466.49 605.2"/><polygon class="cls-7" points="363.49 605.2 351.49 605.2 351.49 594.2 350.49 594.2 350.49 605.2 339.49 605.2 339.49 608.2 350.49 608.2 350.49 619.2 351.49 619.2 351.49 608.2 363.49 608.2 363.49 605.2"/><polygon class="cls-7" points="259.49 605.2 248.49 605.2 248.49 594.2 247.49 594.2 247.49 605.2 236.49 605.2 236.49 608.2 247.49 608.2 247.49 619.2 248.49 619.2 248.49 608.2 259.49 608.2 259.49 605.2"/><polygon class="cls-7" points="157.49 605.2 145.49 605.2 145.49 594.2 142.49 594.2 142.49 605.2 131.49 605.2 131.49 608.2 142.49 608.2 142.49 619.2 145.49 619.2 145.49 608.2 157.49 608.2 157.49 605.2"/><polygon class="cls-7" points="53.49 605.2 41.49 605.2 41.49 594.47 41.49 594.47 41.49 605.2 30.49 605.2 30.49 608.2 41.49 608.2 41.49 618.99 41.49 618.99 41.49 608.2 53.49 608.2 53.49 605.2"/></g><g class="cls-6"><polygon class="cls-7" points="567.49 195.2 554.49 195.2 554.49 184.2 553.49 184.2 553.49 195.2 542.49 195.2 542.49 197.2 553.49 197.2 553.49 208.2 554.49 208.2 554.49 197.2 567.49 197.2 567.49 195.2"/><polygon class="cls-7" points="464.49 195.2 451.49 195.2 451.49 184.2 449.49 184.2 449.49 195.2 439.49 195.2 439.49 197.2 449.49 197.2 449.49 208.2 451.49 208.2 451.49 197.2 464.49 197.2 464.49 195.2"/><polygon class="cls-7" points="361.49 195.2 347.49 195.2 347.49 183.72 347.49 183.72 347.49 195.2 336.49 195.2 336.49 197.2 347.49 197.2 347.49 208.24 347.49 208.24 347.49 197.2 361.49 197.2 361.49 195.2"/></g><g class="cls-6"><polygon class="cls-7" points="605.49 260.2 592.49 260.2 592.49 250.2 591.49 250.2 591.49 260.2 580.49 260.2 580.49 262.2 591.49 262.2 591.49 273.2 592.49 273.2 592.49 262.2 605.49 262.2 605.49 260.2"/><polygon class="cls-7" points="500.49 260.2 489.49 260.2 489.49 250.2 488.49 250.2 488.49 260.2 477.49 260.2 477.49 262.2 488.49 262.2 488.49 273.2 489.49 273.2 489.49 262.2 500.49 262.2 500.49 260.2"/><polygon class="cls-7" points="399.49 260.2 386.49 260.2 386.49 250.2 384.49 250.2 384.49 260.2 373.49 260.2 373.49 262.2 384.49 262.2 384.49 273.2 386.49 273.2 386.49 262.2 399.49 262.2 399.49 260.2"/><polygon class="cls-7" points="294.49 260.2 282.49 260.2 282.49 249.93 282.49 249.93 282.49 260.2 271.49 260.2 271.49 262.2 282.49 262.2 282.49 273.22 282.49 273.22 282.49 262.2 294.49 262.2 294.49 260.2"/></g><g class="cls-6"><polygon class="cls-7" points="632.49 336.2 619.49 336.2 619.49 325.2 618.49 325.2 618.49 336.2 607.49 336.2 607.49 338.2 618.49 338.2 618.49 350.2 619.49 350.2 619.49 338.2 632.49 338.2 632.49 336.2"/><polygon class="cls-7" points="529.49 336.2 516.49 336.2 516.49 325.2 514.49 325.2 514.49 336.2 504.49 336.2 504.49 338.2 514.49 338.2 514.49 350.2 516.49 350.2 516.49 338.2 529.49 338.2 529.49 336.2"/><polygon class="cls-7" points="426.49 336.2 412.49 336.2 412.49 324.72 412.49 324.72 412.49 336.2 401.49 336.2 401.49 338.2 412.49 338.2 412.49 350.47 412.49 350.47 412.49 338.2 426.49 338.2 426.49 336.2"/><polygon class="cls-7" points="321.49 336.2 310.49 336.2 310.49 325.2 308.49 325.2 308.49 336.2 298.49 336.2 298.49 338.2 308.49 338.2 308.49 350.2 310.49 350.2 310.49 338.2 321.49 338.2 321.49 336.2"/><polygon class="cls-7" points="220.49 336.2 207.49 336.2 207.49 325.2 206.49 325.2 206.49 336.2 194.49 336.2 194.49 338.2 206.49 338.2 206.49 350.2 207.49 350.2 207.49 338.2 220.49 338.2 220.49 336.2"/></g><g class="cls-6"><polygon class="cls-7" points="567.49 402.2 554.49 402.2 554.49 390.2 553.49 390.2 553.49 402.2 542.49 402.2 542.49 404.2 553.49 404.2 553.49 415.2 554.49 415.2 554.49 404.2 567.49 404.2 567.49 402.2"/><polygon class="cls-7" points="464.49 402.2 451.49 402.2 451.49 390.2 449.49 390.2 449.49 402.2 439.49 402.2 439.49 404.2 449.49 404.2 449.49 415.2 451.49 415.2 451.49 404.2 464.49 404.2 464.49 402.2"/><polygon class="cls-7" points="361.49 402.2 347.49 402.2 347.49 389.7 347.49 389.7 347.49 402.2 336.49 402.2 336.49 404.2 347.49 404.2 347.49 415.45 347.49 415.45 347.49 404.2 361.49 404.2 361.49 402.2"/><polygon class="cls-7" points="256.49 402.2 245.49 402.2 245.49 390.2 243.49 390.2 243.49 402.2 233.49 402.2 233.49 404.2 243.49 404.2 243.49 415.2 245.49 415.2 245.49 404.2 256.49 404.2 256.49 402.2"/><polygon class="cls-7" points="155.49 402.2 141.49 402.2 141.49 390.2 140.49 390.2 140.49 402.2 129.49 402.2 129.49 404.2 140.49 404.2 140.49 415.2 141.49 415.2 141.49 404.2 155.49 404.2 155.49 402.2"/></g></g><g class="cls-5"><g class="cls-6"><polygon class="cls-7" points="607.49 464.2 595.49 464.2 595.49 452.2 594.49 452.2 594.49 464.2 583.49 464.2 583.49 467.2 594.49 467.2 594.49 478.2 595.49 478.2 595.49 467.2 607.49 467.2 607.49 464.2"/><polygon class="cls-7" points="504.49 464.2 492.49 464.2 492.49 452.2 491.49 452.2 491.49 464.2 480.49 464.2 480.49 467.2 491.49 467.2 491.49 478.2 492.49 478.2 492.49 467.2 504.49 467.2 504.49 464.2"/><polygon class="cls-7" points="401.49 464.2 389.49 464.2 389.49 452.2 386.49 452.2 386.49 464.2 377.49 464.2 377.49 467.2 386.49 467.2 386.49 478.2 389.49 478.2 389.49 467.2 401.49 467.2 401.49 464.2"/><polygon class="cls-7" points="298.49 464.2 285.49 464.2 285.49 452.24 285.49 452.24 285.49 464.2 274.49 464.2 274.49 467.2 285.49 467.2 285.49 477.99 285.49 477.99 285.49 467.2 298.49 467.2 298.49 464.2"/><polygon class="cls-7" points="194.49 464.2 183.49 464.2 183.49 452.2 180.49 452.2 180.49 464.2 171.49 464.2 171.49 467.2 180.49 467.2 180.49 478.2 183.49 478.2 183.49 467.2 194.49 467.2 194.49 464.2"/><polygon class="cls-7" points="92.49 464.2 80.49 464.2 80.49 452.2 77.49 452.2 77.49 464.2 66.49 464.2 66.49 467.2 77.49 467.2 77.49 478.2 80.49 478.2 80.49 467.2 92.49 467.2 92.49 464.2"/></g><g class="cls-6"><polygon class="cls-7" points="542.49 529.2 530.49 529.2 530.49 517.2 529.49 517.2 529.49 529.2 518.49 529.2 518.49 532.2 529.49 532.2 529.49 543.2 530.49 543.2 530.49 532.2 542.49 532.2 542.49 529.2"/><polygon class="cls-7" points="439.49 529.2 427.49 529.2 427.49 517.2 426.49 517.2 426.49 529.2 415.49 529.2 415.49 532.2 426.49 532.2 426.49 543.2 427.49 543.2 427.49 532.2 439.49 532.2 439.49 529.2"/><polygon class="cls-7" points="336.49 529.2 324.49 529.2 324.49 517.2 321.49 517.2 321.49 529.2 312.49 529.2 312.49 532.2 321.49 532.2 321.49 543.2 324.49 543.2 324.49 532.2 336.49 532.2 336.49 529.2"/><polygon class="cls-7" points="233.49 529.2 220.49 529.2 220.49 517.22 220.49 517.22 220.49 529.2 209.49 529.2 209.49 532.2 220.49 532.2 220.49 542.97 220.49 542.97 220.49 532.2 233.49 532.2 233.49 529.2"/><polygon class="cls-7" points="129.49 529.2 118.49 529.2 118.49 517.2 115.49 517.2 115.49 529.2 106.49 529.2 106.49 532.2 115.49 532.2 115.49 543.2 118.49 543.2 118.49 532.2 129.49 532.2 129.49 529.2"/><polygon class="cls-7" points="27.49 529.2 14.49 529.2 14.49 517.2 12.49 517.2 12.49 529.2 1.49 529.2 1.49 532.2 12.49 532.2 12.49 543.2 14.49 543.2 14.49 532.2 27.49 532.2 27.49 529.2"/></g><g class="cls-6"><polygon class="cls-7" points="569.49 605.2 557.49 605.2 557.49 594.2 556.49 594.2 556.49 605.2 545.49 605.2 545.49 608.2 556.49 608.2 556.49 619.2 557.49 619.2 557.49 608.2 569.49 608.2 569.49 605.2"/><polygon class="cls-7" points="466.49 605.2 454.49 605.2 454.49 594.2 451.49 594.2 451.49 605.2 442.49 605.2 442.49 608.2 451.49 608.2 451.49 619.2 454.49 619.2 454.49 608.2 466.49 608.2 466.49 605.2"/><polygon class="cls-7" points="363.49 605.2 351.49 605.2 351.49 594.2 350.49 594.2 350.49 605.2 339.49 605.2 339.49 608.2 350.49 608.2 350.49 619.2 351.49 619.2 351.49 608.2 363.49 608.2 363.49 605.2"/><polygon class="cls-7" points="259.49 605.2 248.49 605.2 248.49 594.2 247.49 594.2 247.49 605.2 236.49 605.2 236.49 608.2 247.49 608.2 247.49 619.2 248.49 619.2 248.49 608.2 259.49 608.2 259.49 605.2"/><polygon class="cls-7" points="157.49 605.2 145.49 605.2 145.49 594.2 142.49 594.2 142.49 605.2 131.49 605.2 131.49 608.2 142.49 608.2 142.49 619.2 145.49 619.2 145.49 608.2 157.49 608.2 157.49 605.2"/><polygon class="cls-7" points="53.49 605.2 41.49 605.2 41.49 594.47 41.49 594.47 41.49 605.2 30.49 605.2 30.49 608.2 41.49 608.2 41.49 618.99 41.49 618.99 41.49 608.2 53.49 608.2 53.49 605.2"/></g><g class="cls-6"><polygon class="cls-7" points="567.49 195.2 554.49 195.2 554.49 184.2 553.49 184.2 553.49 195.2 542.49 195.2 542.49 197.2 553.49 197.2 553.49 208.2 554.49 208.2 554.49 197.2 567.49 197.2 567.49 195.2"/><polygon class="cls-7" points="464.49 195.2 451.49 195.2 451.49 184.2 449.49 184.2 449.49 195.2 439.49 195.2 439.49 197.2 449.49 197.2 449.49 208.2 451.49 208.2 451.49 197.2 464.49 197.2 464.49 195.2"/><polygon class="cls-7" points="361.49 195.2 347.49 195.2 347.49 183.72 347.49 183.72 347.49 195.2 336.49 195.2 336.49 197.2 347.49 197.2 347.49 208.24 347.49 208.24 347.49 197.2 361.49 197.2 361.49 195.2"/></g><g class="cls-6"><polygon class="cls-7" points="605.49 260.2 592.49 260.2 592.49 250.2 591.49 250.2 591.49 260.2 580.49 260.2 580.49 262.2 591.49 262.2 591.49 273.2 592.49 273.2 592.49 262.2 605.49 262.2 605.49 260.2"/><polygon class="cls-7" points="500.49 260.2 489.49 260.2 489.49 250.2 488.49 250.2 488.49 260.2 477.49 260.2 477.49 262.2 488.49 262.2 488.49 273.2 489.49 273.2 489.49 262.2 500.49 262.2 500.49 260.2"/><polygon class="cls-7" points="399.49 260.2 386.49 260.2 386.49 250.2 384.49 250.2 384.49 260.2 373.49 260.2 373.49 262.2 384.49 262.2 384.49 273.2 386.49 273.2 386.49 262.2 399.49 262.2 399.49 260.2"/><polygon class="cls-7" points="294.49 260.2 282.49 260.2 282.49 249.93 282.49 249.93 282.49 260.2 271.49 260.2 271.49 262.2 282.49 262.2 282.49 273.22 282.49 273.22 282.49 262.2 294.49 262.2 294.49 260.2"/></g><g class="cls-6"><polygon class="cls-7" points="632.49 336.2 619.49 336.2 619.49 325.2 618.49 325.2 618.49 336.2 607.49 336.2 607.49 338.2 618.49 338.2 618.49 350.2 619.49 350.2 619.49 338.2 632.49 338.2 632.49 336.2"/><polygon class="cls-7" points="529.49 336.2 516.49 336.2 516.49 325.2 514.49 325.2 514.49 336.2 504.49 336.2 504.49 338.2 514.49 338.2 514.49 350.2 516.49 350.2 516.49 338.2 529.49 338.2 529.49 336.2"/><polygon class="cls-7" points="426.49 336.2 412.49 336.2 412.49 324.72 412.49 324.72 412.49 336.2 401.49 336.2 401.49 338.2 412.49 338.2 412.49 350.47 412.49 350.47 412.49 338.2 426.49 338.2 426.49 336.2"/><polygon class="cls-7" points="321.49 336.2 310.49 336.2 310.49 325.2 308.49 325.2 308.49 336.2 298.49 336.2 298.49 338.2 308.49 338.2 308.49 350.2 310.49 350.2 310.49 338.2 321.49 338.2 321.49 336.2"/><polygon class="cls-7" points="220.49 336.2 207.49 336.2 207.49 325.2 206.49 325.2 206.49 336.2 194.49 336.2 194.49 338.2 206.49 338.2 206.49 350.2 207.49 350.2 207.49 338.2 220.49 338.2 220.49 336.2"/></g><g class="cls-6"><polygon class="cls-7" points="567.49 402.2 554.49 402.2 554.49 390.2 553.49 390.2 553.49 402.2 542.49 402.2 542.49 404.2 553.49 404.2 553.49 415.2 554.49 415.2 554.49 404.2 567.49 404.2 567.49 402.2"/><polygon class="cls-7" points="464.49 402.2 451.49 402.2 451.49 390.2 449.49 390.2 449.49 402.2 439.49 402.2 439.49 404.2 449.49 404.2 449.49 415.2 451.49 415.2 451.49 404.2 464.49 404.2 464.49 402.2"/><polygon class="cls-7" points="361.49 402.2 347.49 402.2 347.49 389.7 347.49 389.7 347.49 402.2 336.49 402.2 336.49 404.2 347.49 404.2 347.49 415.45 347.49 415.45 347.49 404.2 361.49 404.2 361.49 402.2"/><polygon class="cls-7" points="256.49 402.2 245.49 402.2 245.49 390.2 243.49 390.2 243.49 402.2 233.49 402.2 233.49 404.2 243.49 404.2 243.49 415.2 245.49 415.2 245.49 404.2 256.49 404.2 256.49 402.2"/><polygon class="cls-7" points="155.49 402.2 141.49 402.2 141.49 390.2 140.49 390.2 140.49 402.2 129.49 402.2 129.49 404.2 140.49 404.2 140.49 415.2 141.49 415.2 141.49 404.2 155.49 404.2 155.49 402.2"/></g></g><g class="cls-5"><g class="cls-6"><polygon class="cls-7" points="607.49 464.2 595.49 464.2 595.49 452.2 594.49 452.2 594.49 464.2 583.49 464.2 583.49 467.2 594.49 467.2 594.49 478.2 595.49 478.2 595.49 467.2 607.49 467.2 607.49 464.2"/><polygon class="cls-7" points="504.49 464.2 492.49 464.2 492.49 452.2 491.49 452.2 491.49 464.2 480.49 464.2 480.49 467.2 491.49 467.2 491.49 478.2 492.49 478.2 492.49 467.2 504.49 467.2 504.49 464.2"/><polygon class="cls-7" points="401.49 464.2 389.49 464.2 389.49 452.2 386.49 452.2 386.49 464.2 377.49 464.2 377.49 467.2 386.49 467.2 386.49 478.2 389.49 478.2 389.49 467.2 401.49 467.2 401.49 464.2"/><polygon class="cls-7" points="298.49 464.2 285.49 464.2 285.49 452.24 285.49 452.24 285.49 464.2 274.49 464.2 274.49 467.2 285.49 467.2 285.49 477.99 285.49 477.99 285.49 467.2 298.49 467.2 298.49 464.2"/><polygon class="cls-7" points="194.49 464.2 183.49 464.2 183.49 452.2 180.49 452.2 180.49 464.2 171.49 464.2 171.49 467.2 180.49 467.2 180.49 478.2 183.49 478.2 183.49 467.2 194.49 467.2 194.49 464.2"/><polygon class="cls-7" points="92.49 464.2 80.49 464.2 80.49 452.2 77.49 452.2 77.49 464.2 66.49 464.2 66.49 467.2 77.49 467.2 77.49 478.2 80.49 478.2 80.49 467.2 92.49 467.2 92.49 464.2"/></g><g class="cls-6"><polygon class="cls-7" points="542.49 529.2 530.49 529.2 530.49 517.2 529.49 517.2 529.49 529.2 518.49 529.2 518.49 532.2 529.49 532.2 529.49 543.2 530.49 543.2 530.49 532.2 542.49 532.2 542.49 529.2"/><polygon class="cls-7" points="439.49 529.2 427.49 529.2 427.49 517.2 426.49 517.2 426.49 529.2 415.49 529.2 415.49 532.2 426.49 532.2 426.49 543.2 427.49 543.2 427.49 532.2 439.49 532.2 439.49 529.2"/><polygon class="cls-7" points="336.49 529.2 324.49 529.2 324.49 517.2 321.49 517.2 321.49 529.2 312.49 529.2 312.49 532.2 321.49 532.2 321.49 543.2 324.49 543.2 324.49 532.2 336.49 532.2 336.49 529.2"/><polygon class="cls-7" points="233.49 529.2 220.49 529.2 220.49 517.22 220.49 517.22 220.49 529.2 209.49 529.2 209.49 532.2 220.49 532.2 220.49 542.97 220.49 542.97 220.49 532.2 233.49 532.2 233.49 529.2"/><polygon class="cls-7" points="129.49 529.2 118.49 529.2 118.49 517.2 115.49 517.2 115.49 529.2 106.49 529.2 106.49 532.2 115.49 532.2 115.49 543.2 118.49 543.2 118.49 532.2 129.49 532.2 129.49 529.2"/><polygon class="cls-7" points="27.49 529.2 14.49 529.2 14.49 517.2 12.49 517.2 12.49 529.2 1.49 529.2 1.49 532.2 12.49 532.2 12.49 543.2 14.49 543.2 14.49 532.2 27.49 532.2 27.49 529.2"/></g><g class="cls-6"><polygon class="cls-7" points="569.49 605.2 557.49 605.2 557.49 594.2 556.49 594.2 556.49 605.2 545.49 605.2 545.49 608.2 556.49 608.2 556.49 619.2 557.49 619.2 557.49 608.2 569.49 608.2 569.49 605.2"/><polygon class="cls-7" points="466.49 605.2 454.49 605.2 454.49 594.2 451.49 594.2 451.49 605.2 442.49 605.2 442.49 608.2 451.49 608.2 451.49 619.2 454.49 619.2 454.49 608.2 466.49 608.2 466.49 605.2"/><polygon class="cls-7" points="363.49 605.2 351.49 605.2 351.49 594.2 350.49 594.2 350.49 605.2 339.49 605.2 339.49 608.2 350.49 608.2 350.49 619.2 351.49 619.2 351.49 608.2 363.49 608.2 363.49 605.2"/><polygon class="cls-7" points="259.49 605.2 248.49 605.2 248.49 594.2 247.49 594.2 247.49 605.2 236.49 605.2 236.49 608.2 247.49 608.2 247.49 619.2 248.49 619.2 248.49 608.2 259.49 608.2 259.49 605.2"/><polygon class="cls-7" points="157.49 605.2 145.49 605.2 145.49 594.2 142.49 594.2 142.49 605.2 131.49 605.2 131.49 608.2 142.49 608.2 142.49 619.2 145.49 619.2 145.49 608.2 157.49 608.2 157.49 605.2"/><polygon class="cls-7" points="53.49 605.2 41.49 605.2 41.49 594.47 41.49 594.47 41.49 605.2 30.49 605.2 30.49 608.2 41.49 608.2 41.49 618.99 41.49 618.99 41.49 608.2 53.49 608.2 53.49 605.2"/></g><g class="cls-6"><polygon class="cls-7" points="567.49 195.2 554.49 195.2 554.49 184.2 553.49 184.2 553.49 195.2 542.49 195.2 542.49 197.2 553.49 197.2 553.49 208.2 554.49 208.2 554.49 197.2 567.49 197.2 567.49 195.2"/><polygon class="cls-7" points="464.49 195.2 451.49 195.2 451.49 184.2 449.49 184.2 449.49 195.2 439.49 195.2 439.49 197.2 449.49 197.2 449.49 208.2 451.49 208.2 451.49 197.2 464.49 197.2 464.49 195.2"/><polygon class="cls-7" points="361.49 195.2 347.49 195.2 347.49 183.72 347.49 183.72 347.49 195.2 336.49 195.2 336.49 197.2 347.49 197.2 347.49 208.24 347.49 208.24 347.49 197.2 361.49 197.2 361.49 195.2"/></g><g class="cls-6"><polygon class="cls-7" points="605.49 260.2 592.49 260.2 592.49 250.2 591.49 250.2 591.49 260.2 580.49 260.2 580.49 262.2 591.49 262.2 591.49 273.2 592.49 273.2 592.49 262.2 605.49 262.2 605.49 260.2"/><polygon class="cls-7" points="500.49 260.2 489.49 260.2 489.49 250.2 488.49 250.2 488.49 260.2 477.49 260.2 477.49 262.2 488.49 262.2 488.49 273.2 489.49 273.2 489.49 262.2 500.49 262.2 500.49 260.2"/><polygon class="cls-7" points="399.49 260.2 386.49 260.2 386.49 250.2 384.49 250.2 384.49 260.2 373.49 260.2 373.49 262.2 384.49 262.2 384.49 273.2 386.49 273.2 386.49 262.2 399.49 262.2 399.49 260.2"/><polygon class="cls-7" points="294.49 260.2 282.49 260.2 282.49 249.93 282.49 249.93 282.49 260.2 271.49 260.2 271.49 262.2 282.49 262.2 282.49 273.22 282.49 273.22 282.49 262.2 294.49 262.2 294.49 260.2"/></g><g class="cls-6"><polygon class="cls-7" points="632.49 336.2 619.49 336.2 619.49 325.2 618.49 325.2 618.49 336.2 607.49 336.2 607.49 338.2 618.49 338.2 618.49 350.2 619.49 350.2 619.49 338.2 632.49 338.2 632.49 336.2"/><polygon class="cls-7" points="529.49 336.2 516.49 336.2 516.49 325.2 514.49 325.2 514.49 336.2 504.49 336.2 504.49 338.2 514.49 338.2 514.49 350.2 516.49 350.2 516.49 338.2 529.49 338.2 529.49 336.2"/><polygon class="cls-7" points="426.49 336.2 412.49 336.2 412.49 324.72 412.49 324.72 412.49 336.2 401.49 336.2 401.49 338.2 412.49 338.2 412.49 350.47 412.49 350.47 412.49 338.2 426.49 338.2 426.49 336.2"/><polygon class="cls-7" points="321.49 336.2 310.49 336.2 310.49 325.2 308.49 325.2 308.49 336.2 298.49 336.2 298.49 338.2 308.49 338.2 308.49 350.2 310.49 350.2 310.49 338.2 321.49 338.2 321.49 336.2"/><polygon class="cls-7" points="220.49 336.2 207.49 336.2 207.49 325.2 206.49 325.2 206.49 336.2 194.49 336.2 194.49 338.2 206.49 338.2 206.49 350.2 207.49 350.2 207.49 338.2 220.49 338.2 220.49 336.2"/></g><g class="cls-6"><polygon class="cls-7" points="567.49 402.2 554.49 402.2 554.49 390.2 553.49 390.2 553.49 402.2 542.49 402.2 542.49 404.2 553.49 404.2 553.49 415.2 554.49 415.2 554.49 404.2 567.49 404.2 567.49 402.2"/><polygon class="cls-7" points="464.49 402.2 451.49 402.2 451.49 390.2 449.49 390.2 449.49 402.2 439.49 402.2 439.49 404.2 449.49 404.2 449.49 415.2 451.49 415.2 451.49 404.2 464.49 404.2 464.49 402.2"/><polygon class="cls-7" points="361.49 402.2 347.49 402.2 347.49 389.7 347.49 389.7 347.49 402.2 336.49 402.2 336.49 404.2 347.49 404.2 347.49 415.45 347.49 415.45 347.49 404.2 361.49 404.2 361.49 402.2"/><polygon class="cls-7" points="256.49 402.2 245.49 402.2 245.49 390.2 243.49 390.2 243.49 402.2 233.49 402.2 233.49 404.2 243.49 404.2 243.49 415.2 245.49 415.2 245.49 404.2 256.49 404.2 256.49 402.2"/><polygon class="cls-7" points="155.49 402.2 141.49 402.2 141.49 390.2 140.49 390.2 140.49 402.2 129.49 402.2 129.49 404.2 140.49 404.2 140.49 415.2 141.49 415.2 141.49 404.2 155.49 404.2 155.49 402.2"/></g></g></g></g><rect class="cls-1" x="-524.17" y="38.2" width="1024.41" height="509.75"/><rect class="cls-1" x="-524.17" y="88.2" width="1020" height="632.43"/><g class="cls-8"><polygon class="cls-9" points="11.44 707.12 41.82 220.2 -18.18 -95.44 611.35 -98.2 663.78 396.93 641.53 753.6 11.44 707.12"/><g class="cls-10"><g class="cls-5"><g class="cls-6"><polygon class="cls-11" points="582.49 506.2 570.49 506.2 570.49 494.2 569.49 494.2 569.49 506.2 558.49 506.2 558.49 509.2 569.49 509.2 569.49 520.2 570.49 520.2 570.49 509.2 582.49 509.2 582.49 506.2"/><polygon class="cls-11" points="479.49 506.2 467.49 506.2 467.49 494.2 464.49 494.2 464.49 506.2 455.49 506.2 455.49 509.2 464.49 509.2 464.49 520.2 467.49 520.2 467.49 509.2 479.49 509.2 479.49 506.2"/><polygon class="cls-11" points="376.49 506.2 363.49 506.2 363.49 494.24 363.49 494.24 363.49 506.2 352.49 506.2 352.49 509.2 363.49 509.2 363.49 519.99 363.49 519.99 363.49 509.2 376.49 509.2 376.49 506.2"/><polygon class="cls-11" points="272.49 506.2 261.49 506.2 261.49 494.2 258.49 494.2 258.49 506.2 249.49 506.2 249.49 509.2 258.49 509.2 258.49 520.2 261.49 520.2 261.49 509.2 272.49 509.2 272.49 506.2"/><polygon class="cls-11" points="170.49 506.2 158.49 506.2 158.49 494.2 155.49 494.2 155.49 506.2 144.49 506.2 144.49 509.2 155.49 509.2 155.49 520.2 158.49 520.2 158.49 509.2 170.49 509.2 170.49 506.2"/></g><g class="cls-6"><polygon class="cls-11" points="620.49 571.2 608.49 571.2 608.49 559.2 607.49 559.2 607.49 571.2 596.49 571.2 596.49 574.2 607.49 574.2 607.49 585.2 608.49 585.2 608.49 574.2 620.49 574.2 620.49 571.2"/><polygon class="cls-11" points="517.49 571.2 505.49 571.2 505.49 559.2 504.49 559.2 504.49 571.2 493.49 571.2 493.49 574.2 504.49 574.2 504.49 585.2 505.49 585.2 505.49 574.2 517.49 574.2 517.49 571.2"/><polygon class="cls-11" points="414.49 571.2 402.49 571.2 402.49 559.2 399.49 559.2 399.49 571.2 390.49 571.2 390.49 574.2 399.49 574.2 399.49 585.2 402.49 585.2 402.49 574.2 414.49 574.2 414.49 571.2"/><polygon class="cls-11" points="311.49 571.2 298.49 571.2 298.49 559.22 298.49 559.22 298.49 571.2 287.49 571.2 287.49 574.2 298.49 574.2 298.49 584.97 298.49 584.97 298.49 574.2 311.49 574.2 311.49 571.2"/><polygon class="cls-11" points="207.49 571.2 196.49 571.2 196.49 559.2 193.49 559.2 193.49 571.2 184.49 571.2 184.49 574.2 193.49 574.2 193.49 585.2 196.49 585.2 196.49 574.2 207.49 574.2 207.49 571.2"/><polygon class="cls-11" points="105.49 571.2 92.49 571.2 92.49 559.2 90.49 559.2 90.49 571.2 79.49 571.2 79.49 574.2 90.49 574.2 90.49 585.2 92.49 585.2 92.49 574.2 105.49 574.2 105.49 571.2"/></g><g class="cls-6"><polygon class="cls-11" points="544.49 647.2 532.49 647.2 532.49 636.2 529.49 636.2 529.49 647.2 520.49 647.2 520.49 650.2 529.49 650.2 529.49 661.2 532.49 661.2 532.49 650.2 544.49 650.2 544.49 647.2"/><polygon class="cls-11" points="441.49 647.2 429.49 647.2 429.49 636.2 428.49 636.2 428.49 647.2 417.49 647.2 417.49 650.2 428.49 650.2 428.49 661.2 429.49 661.2 429.49 650.2 441.49 650.2 441.49 647.2"/><polygon class="cls-11" points="337.49 647.2 326.49 647.2 326.49 636.2 325.49 636.2 325.49 647.2 314.49 647.2 314.49 650.2 325.49 650.2 325.49 661.2 326.49 661.2 326.49 650.2 337.49 650.2 337.49 647.2"/><polygon class="cls-11" points="235.49 647.2 223.49 647.2 223.49 636.2 220.49 636.2 220.49 647.2 209.49 647.2 209.49 650.2 220.49 650.2 220.49 661.2 223.49 661.2 223.49 650.2 235.49 650.2 235.49 647.2"/><polygon class="cls-11" points="131.49 647.2 119.49 647.2 119.49 636.47 119.49 636.47 119.49 647.2 108.49 647.2 108.49 650.2 119.49 650.2 119.49 660.99 119.49 660.99 119.49 650.2 131.49 650.2 131.49 647.2"/><polygon class="cls-11" points="28.49 647.2 17.49 647.2 17.49 636.2 14.49 636.2 14.49 647.2 3.49 647.2 3.49 650.2 14.49 650.2 14.49 661.2 17.49 661.2 17.49 650.2 28.49 650.2 28.49 647.2"/></g><g class="cls-6"><polygon class="cls-11" points="542.49 237.2 529.49 237.2 529.49 226.2 527.49 226.2 527.49 237.2 517.49 237.2 517.49 239.2 527.49 239.2 527.49 250.2 529.49 250.2 529.49 239.2 542.49 239.2 542.49 237.2"/><polygon class="cls-11" points="439.49 237.2 425.49 237.2 425.49 225.72 425.49 225.72 425.49 237.2 414.49 237.2 414.49 239.2 425.49 239.2 425.49 250.24 425.49 250.24 425.49 239.2 439.49 239.2 439.49 237.2"/></g><g class="cls-6"><polygon class="cls-11" points="578.49 302.2 567.49 302.2 567.49 292.2 566.49 292.2 566.49 302.2 555.49 302.2 555.49 304.2 566.49 304.2 566.49 315.2 567.49 315.2 567.49 304.2 578.49 304.2 578.49 302.2"/><polygon class="cls-11" points="477.49 302.2 464.49 302.2 464.49 292.2 462.49 292.2 462.49 302.2 451.49 302.2 451.49 304.2 462.49 304.2 462.49 315.2 464.49 315.2 464.49 304.2 477.49 304.2 477.49 302.2"/><polygon class="cls-11" points="372.49 302.2 360.49 302.2 360.49 291.93 360.49 291.93 360.49 302.2 349.49 302.2 349.49 304.2 360.49 304.2 360.49 315.22 360.49 315.22 360.49 304.2 372.49 304.2 372.49 302.2"/></g><g class="cls-6"><polygon class="cls-11" points="607.49 378.2 594.49 378.2 594.49 367.2 592.49 367.2 592.49 378.2 582.49 378.2 582.49 380.2 592.49 380.2 592.49 392.2 594.49 392.2 594.49 380.2 607.49 380.2 607.49 378.2"/><polygon class="cls-11" points="504.49 378.2 490.49 378.2 490.49 366.72 490.49 366.72 490.49 378.2 479.49 378.2 479.49 380.2 490.49 380.2 490.49 392.47 490.49 392.47 490.49 380.2 504.49 380.2 504.49 378.2"/><polygon class="cls-11" points="399.49 378.2 388.49 378.2 388.49 367.2 386.49 367.2 386.49 378.2 376.49 378.2 376.49 380.2 386.49 380.2 386.49 392.2 388.49 392.2 388.49 380.2 399.49 380.2 399.49 378.2"/><polygon class="cls-11" points="298.49 378.2 285.49 378.2 285.49 367.2 284.49 367.2 284.49 378.2 272.49 378.2 272.49 380.2 284.49 380.2 284.49 392.2 285.49 392.2 285.49 380.2 298.49 380.2 298.49 378.2"/></g><g class="cls-6"><polygon class="cls-11" points="542.49 444.2 529.49 444.2 529.49 432.2 527.49 432.2 527.49 444.2 517.49 444.2 517.49 446.2 527.49 446.2 527.49 457.2 529.49 457.2 529.49 446.2 542.49 446.2 542.49 444.2"/><polygon class="cls-11" points="439.49 444.2 425.49 444.2 425.49 431.7 425.49 431.7 425.49 444.2 414.49 444.2 414.49 446.2 425.49 446.2 425.49 457.45 425.49 457.45 425.49 446.2 439.49 446.2 439.49 444.2"/><polygon class="cls-11" points="334.49 444.2 323.49 444.2 323.49 432.2 321.49 432.2 321.49 444.2 311.49 444.2 311.49 446.2 321.49 446.2 321.49 457.2 323.49 457.2 323.49 446.2 334.49 446.2 334.49 444.2"/><polygon class="cls-11" points="233.49 444.2 219.49 444.2 219.49 432.2 218.49 432.2 218.49 444.2 207.49 444.2 207.49 446.2 218.49 446.2 218.49 457.2 219.49 457.2 219.49 446.2 233.49 446.2 233.49 444.2"/></g></g><g class="cls-6"><polygon class="cls-11" points="582.49 506.2 570.49 506.2 570.49 494.2 569.49 494.2 569.49 506.2 558.49 506.2 558.49 509.2 569.49 509.2 569.49 520.2 570.49 520.2 570.49 509.2 582.49 509.2 582.49 506.2"/><polygon class="cls-11" points="479.49 506.2 467.49 506.2 467.49 494.2 464.49 494.2 464.49 506.2 455.49 506.2 455.49 509.2 464.49 509.2 464.49 520.2 467.49 520.2 467.49 509.2 479.49 509.2 479.49 506.2"/><polygon class="cls-11" points="376.49 506.2 363.49 506.2 363.49 494.24 363.49 494.24 363.49 506.2 352.49 506.2 352.49 509.2 363.49 509.2 363.49 519.99 363.49 519.99 363.49 509.2 376.49 509.2 376.49 506.2"/><polygon class="cls-11" points="272.49 506.2 261.49 506.2 261.49 494.2 258.49 494.2 258.49 506.2 249.49 506.2 249.49 509.2 258.49 509.2 258.49 520.2 261.49 520.2 261.49 509.2 272.49 509.2 272.49 506.2"/><polygon class="cls-11" points="170.49 506.2 158.49 506.2 158.49 494.2 155.49 494.2 155.49 506.2 144.49 506.2 144.49 509.2 155.49 509.2 155.49 520.2 158.49 520.2 158.49 509.2 170.49 509.2 170.49 506.2"/></g><g class="cls-6"><polygon class="cls-11" points="620.49 571.2 608.49 571.2 608.49 559.2 607.49 559.2 607.49 571.2 596.49 571.2 596.49 574.2 607.49 574.2 607.49 585.2 608.49 585.2 608.49 574.2 620.49 574.2 620.49 571.2"/><polygon class="cls-11" points="517.49 571.2 505.49 571.2 505.49 559.2 504.49 559.2 504.49 571.2 493.49 571.2 493.49 574.2 504.49 574.2 504.49 585.2 505.49 585.2 505.49 574.2 517.49 574.2 517.49 571.2"/><polygon class="cls-11" points="414.49 571.2 402.49 571.2 402.49 559.2 399.49 559.2 399.49 571.2 390.49 571.2 390.49 574.2 399.49 574.2 399.49 585.2 402.49 585.2 402.49 574.2 414.49 574.2 414.49 571.2"/><polygon class="cls-11" points="311.49 571.2 298.49 571.2 298.49 559.22 298.49 559.22 298.49 571.2 287.49 571.2 287.49 574.2 298.49 574.2 298.49 584.97 298.49 584.97 298.49 574.2 311.49 574.2 311.49 571.2"/><polygon class="cls-11" points="207.49 571.2 196.49 571.2 196.49 559.2 193.49 559.2 193.49 571.2 184.49 571.2 184.49 574.2 193.49 574.2 193.49 585.2 196.49 585.2 196.49 574.2 207.49 574.2 207.49 571.2"/><polygon class="cls-11" points="105.49 571.2 92.49 571.2 92.49 559.2 90.49 559.2 90.49 571.2 79.49 571.2 79.49 574.2 90.49 574.2 90.49 585.2 92.49 585.2 92.49 574.2 105.49 574.2 105.49 571.2"/></g><g class="cls-6"><polygon class="cls-11" points="544.49 647.2 532.49 647.2 532.49 636.2 529.49 636.2 529.49 647.2 520.49 647.2 520.49 650.2 529.49 650.2 529.49 661.2 532.49 661.2 532.49 650.2 544.49 650.2 544.49 647.2"/><polygon class="cls-11" points="441.49 647.2 429.49 647.2 429.49 636.2 428.49 636.2 428.49 647.2 417.49 647.2 417.49 650.2 428.49 650.2 428.49 661.2 429.49 661.2 429.49 650.2 441.49 650.2 441.49 647.2"/><polygon class="cls-11" points="337.49 647.2 326.49 647.2 326.49 636.2 325.49 636.2 325.49 647.2 314.49 647.2 314.49 650.2 325.49 650.2 325.49 661.2 326.49 661.2 326.49 650.2 337.49 650.2 337.49 647.2"/><polygon class="cls-11" points="235.49 647.2 223.49 647.2 223.49 636.2 220.49 636.2 220.49 647.2 209.49 647.2 209.49 650.2 220.49 650.2 220.49 661.2 223.49 661.2 223.49 650.2 235.49 650.2 235.49 647.2"/><polygon class="cls-11" points="131.49 647.2 119.49 647.2 119.49 636.47 119.49 636.47 119.49 647.2 108.49 647.2 108.49 650.2 119.49 650.2 119.49 660.99 119.49 660.99 119.49 650.2 131.49 650.2 131.49 647.2"/><polygon class="cls-11" points="28.49 647.2 17.49 647.2 17.49 636.2 14.49 636.2 14.49 647.2 3.49 647.2 3.49 650.2 14.49 650.2 14.49 661.2 17.49 661.2 17.49 650.2 28.49 650.2 28.49 647.2"/></g><g class="cls-6"><polygon class="cls-11" points="542.49 237.2 529.49 237.2 529.49 226.2 527.49 226.2 527.49 237.2 517.49 237.2 517.49 239.2 527.49 239.2 527.49 250.2 529.49 250.2 529.49 239.2 542.49 239.2 542.49 237.2"/><polygon class="cls-11" points="439.49 237.2 425.49 237.2 425.49 225.72 425.49 225.72 425.49 237.2 414.49 237.2 414.49 239.2 425.49 239.2 425.49 250.24 425.49 250.24 425.49 239.2 439.49 239.2 439.49 237.2"/></g><g class="cls-6"><polygon class="cls-11" points="578.49 302.2 567.49 302.2 567.49 292.2 566.49 292.2 566.49 302.2 555.49 302.2 555.49 304.2 566.49 304.2 566.49 315.2 567.49 315.2 567.49 304.2 578.49 304.2 578.49 302.2"/><polygon class="cls-11" points="477.49 302.2 464.49 302.2 464.49 292.2 462.49 292.2 462.49 302.2 451.49 302.2 451.49 304.2 462.49 304.2 462.49 315.2 464.49 315.2 464.49 304.2 477.49 304.2 477.49 302.2"/><polygon class="cls-11" points="372.49 302.2 360.49 302.2 360.49 291.93 360.49 291.93 360.49 302.2 349.49 302.2 349.49 304.2 360.49 304.2 360.49 315.22 360.49 315.22 360.49 304.2 372.49 304.2 372.49 302.2"/></g><g class="cls-6"><polygon class="cls-11" points="607.49 378.2 594.49 378.2 594.49 367.2 592.49 367.2 592.49 378.2 582.49 378.2 582.49 380.2 592.49 380.2 592.49 392.2 594.49 392.2 594.49 380.2 607.49 380.2 607.49 378.2"/><polygon class="cls-11" points="504.49 378.2 490.49 378.2 490.49 366.72 490.49 366.72 490.49 378.2 479.49 378.2 479.49 380.2 490.49 380.2 490.49 392.47 490.49 392.47 490.49 380.2 504.49 380.2 504.49 378.2"/><polygon class="cls-11" points="399.49 378.2 388.49 378.2 388.49 367.2 386.49 367.2 386.49 378.2 376.49 378.2 376.49 380.2 386.49 380.2 386.49 392.2 388.49 392.2 388.49 380.2 399.49 380.2 399.49 378.2"/><polygon class="cls-11" points="298.49 378.2 285.49 378.2 285.49 367.2 284.49 367.2 284.49 378.2 272.49 378.2 272.49 380.2 284.49 380.2 284.49 392.2 285.49 392.2 285.49 380.2 298.49 380.2 298.49 378.2"/></g><g class="cls-6"><polygon class="cls-11" points="542.49 444.2 529.49 444.2 529.49 432.2 527.49 432.2 527.49 444.2 517.49 444.2 517.49 446.2 527.49 446.2 527.49 457.2 529.49 457.2 529.49 446.2 542.49 446.2 542.49 444.2"/><polygon class="cls-11" points="439.49 444.2 425.49 444.2 425.49 431.7 425.49 431.7 425.49 444.2 414.49 444.2 414.49 446.2 425.49 446.2 425.49 457.45 425.49 457.45 425.49 446.2 439.49 446.2 439.49 444.2"/><polygon class="cls-11" points="334.49 444.2 323.49 444.2 323.49 432.2 321.49 432.2 321.49 444.2 311.49 444.2 311.49 446.2 321.49 446.2 321.49 457.2 323.49 457.2 323.49 446.2 334.49 446.2 334.49 444.2"/><polygon class="cls-11" points="233.49 444.2 219.49 444.2 219.49 432.2 218.49 432.2 218.49 444.2 207.49 444.2 207.49 446.2 218.49 446.2 218.49 457.2 219.49 457.2 219.49 446.2 233.49 446.2 233.49 444.2"/></g></g></g><g class="cls-6"><g class="cls-12"><text class="cls-13" transform="matrix(1.01, 0, 0, 1, 41.91, 211.75)">dare to <tspan x="0" y="236.09">be more</tspan></text></g></g><text class="cls-14" transform="translate(105.4 312.24) rotate(-0.15) scale(0.95 1)"><tspan class="cls-15">DARE </tspan><tspan x="236.98" y="0">TO</tspan><tspan x="0" y="81.82">BE</tspan></text><text class="cls-16" transform="translate(222.26 431.42) scale(0.95 1)">inpsired</text><text class="cls-17" transform="translate(110.83 156.75)">Ma<tspan class="cls-18" x="23.85" y="0">r</tspan><tspan class="cls-19" x="29.73" y="0">ch 11, 2017</tspan><tspan x="0" y="24.8">Illinois Institute </tspan><tspan class="cls-20" x="124.2" y="24.8">o</tspan><tspan x="135.03" y="24.8">f </tspan><tspan class="cls-21" x="145.6" y="24.8">T</tspan><tspan x="154.1" y="24.8">echnology</tspan><tspan x="0" y="49.6">McCormick </tspan><tspan class="cls-22" x="97.53" y="49.6">T</tspan><tspan x="105.86" y="49.6">ribune Campus Center</tspan></text><g class="cls-6"><polygon class="cls-11" points="606.49 652.2 615.49 652.2 615.49 660.02 615.49 660.02 615.49 652.2 623.49 652.2 623.49 650.2 615.49 650.2 615.49 642.98 615.49 642.98 615.49 650.2 606.49 650.2 606.49 652.2"/></g></g></g></svg>